solid OpenSCAD_Model
  facet normal -1 0 0
    outer loop
      vertex -7.25 -19 -1.25
      vertex -7.25 -13.5 1.25
      vertex -7.25 -13.5 -1.25
    endloop
  endfacet
  facet normal -1 -0 0
    outer loop
      vertex -7.25 -13.5 1.25
      vertex -7.25 -19 -1.25
      vertex -7.25 -19 1.25
    endloop
  endfacet
  facet normal -1 0 0
    outer loop
      vertex -7.25 13.5 -1.25
      vertex -7.25 19 1.25
      vertex -7.25 19 -1.25
    endloop
  endfacet
  facet normal -1 -0 0
    outer loop
      vertex -7.25 19 1.25
      vertex -7.25 13.5 -1.25
      vertex -7.25 13.5 1.25
    endloop
  endfacet
  facet normal -1 0 0
    outer loop
      vertex -7.25 -7.1 -1.25
      vertex -7.25 7.1 1.25
      vertex -7.25 7.1 -1.25
    endloop
  endfacet
  facet normal -1 -0 0
    outer loop
      vertex -7.25 7.1 1.25
      vertex -7.25 -7.1 -1.25
      vertex -7.25 -7.1 1.25
    endloop
  endfacet
  facet normal -0 0 1
    outer loop
      vertex -7.25 7.1 1.25
      vertex -3.85 -7.1 1.25
      vertex -3.85 7.1 1.25
    endloop
  endfacet
  facet normal 0 0 1
    outer loop
      vertex -3.85 -7.1 1.25
      vertex -7.25 7.1 1.25
      vertex -7.25 -7.1 1.25
    endloop
  endfacet
  facet normal 0 0 1
    outer loop
      vertex 7.25 19 1.25
      vertex 3.85 13.5 1.25
      vertex 7.25 13.5 1.25
    endloop
  endfacet
  facet normal 0 0 1
    outer loop
      vertex -3.85 7.1 1.25
      vertex 3.85 7.1 1.25
      vertex 3.85 13.5 1.25
    endloop
  endfacet
  facet normal 0 0 1
    outer loop
      vertex 3.85 7.1 1.25
      vertex -3.85 7.1 1.25
      vertex 3.85 -7.1 1.25
    endloop
  endfacet
  facet normal 0 0 1
    outer loop
      vertex -3.85 7.1 1.25
      vertex 3.85 13.5 1.25
      vertex -3.85 13.5 1.25
    endloop
  endfacet
  facet normal 0 0 1
    outer loop
      vertex 7.25 19 1.25
      vertex -3.85 13.5 1.25
      vertex 3.85 13.5 1.25
    endloop
  endfacet
  facet normal -0 0 1
    outer loop
      vertex -7.25 19 1.25
      vertex -3.85 13.5 1.25
      vertex 7.25 19 1.25
    endloop
  endfacet
  facet normal 0 0 1
    outer loop
      vertex -3.85 13.5 1.25
      vertex -7.25 19 1.25
      vertex -7.25 13.5 1.25
    endloop
  endfacet
  facet normal -0 0 1
    outer loop
      vertex 3.85 7.1 1.25
      vertex 7.25 -7.1 1.25
      vertex 7.25 7.1 1.25
    endloop
  endfacet
  facet normal 0 0 1
    outer loop
      vertex 7.25 -7.1 1.25
      vertex 3.85 7.1 1.25
      vertex 3.85 -7.1 1.25
    endloop
  endfacet
  facet normal -0 0 1
    outer loop
      vertex 3.85 -13.5 1.25
      vertex 7.25 -19 1.25
      vertex 7.25 -13.5 1.25
    endloop
  endfacet
  facet normal 0 0 1
    outer loop
      vertex -3.85 -7.1 1.25
      vertex 3.85 -7.1 1.25
      vertex -3.85 7.1 1.25
    endloop
  endfacet
  facet normal 0 0 1
    outer loop
      vertex 3.85 -7.1 1.25
      vertex -3.85 -7.1 1.25
      vertex 3.85 -13.5 1.25
    endloop
  endfacet
  facet normal 0 0 1
    outer loop
      vertex -3.85 -13.5 1.25
      vertex 3.85 -13.5 1.25
      vertex -3.85 -7.1 1.25
    endloop
  endfacet
  facet normal 0 0 1
    outer loop
      vertex 3.85 -13.5 1.25
      vertex -3.85 -13.5 1.25
      vertex 7.25 -19 1.25
    endloop
  endfacet
  facet normal 0 0 1
    outer loop
      vertex -7.25 -19 1.25
      vertex -3.85 -13.5 1.25
      vertex -7.25 -13.5 1.25
    endloop
  endfacet
  facet normal 0 0 1
    outer loop
      vertex -3.85 -13.5 1.25
      vertex -7.25 -19 1.25
      vertex 7.25 -19 1.25
    endloop
  endfacet
  facet normal 1 -0 0
    outer loop
      vertex 7.25 -19 1.25
      vertex 7.25 -13.5 -1.25
      vertex 7.25 -13.5 1.25
    endloop
  endfacet
  facet normal 1 0 0
    outer loop
      vertex 7.25 -13.5 -1.25
      vertex 7.25 -19 1.25
      vertex 7.25 -19 -1.25
    endloop
  endfacet
  facet normal 1 -0 0
    outer loop
      vertex 7.25 13.5 1.25
      vertex 7.25 19 -1.25
      vertex 7.25 19 1.25
    endloop
  endfacet
  facet normal 1 0 0
    outer loop
      vertex 7.25 19 -1.25
      vertex 7.25 13.5 1.25
      vertex 7.25 13.5 -1.25
    endloop
  endfacet
  facet normal 1 -0 0
    outer loop
      vertex 7.25 -7.1 1.25
      vertex 7.25 7.1 -1.25
      vertex 7.25 7.1 1.25
    endloop
  endfacet
  facet normal 1 0 0
    outer loop
      vertex 7.25 7.1 -1.25
      vertex 7.25 -7.1 1.25
      vertex 7.25 -7.1 -1.25
    endloop
  endfacet
  facet normal 0 1 -0
    outer loop
      vertex 7.25 19 -1.25
      vertex -7.25 19 1.25
      vertex 7.25 19 1.25
    endloop
  endfacet
  facet normal 0 1 0
    outer loop
      vertex -7.25 19 1.25
      vertex 7.25 19 -1.25
      vertex -7.25 19 -1.25
    endloop
  endfacet
  facet normal 0 0 -1
    outer loop
      vertex -7.25 -7.1 -1.25
      vertex -3.85 7.1 -1.25
      vertex -3.85 -7.1 -1.25
    endloop
  endfacet
  facet normal -0 0 -1
    outer loop
      vertex -3.85 7.1 -1.25
      vertex -7.25 -7.1 -1.25
      vertex -7.25 7.1 -1.25
    endloop
  endfacet
  facet normal 0 0 -1
    outer loop
      vertex 7.25 -19 -1.25
      vertex 3.85 -13.5 -1.25
      vertex 7.25 -13.5 -1.25
    endloop
  endfacet
  facet normal 0 0 -1
    outer loop
      vertex -3.85 -7.1 -1.25
      vertex 3.85 -7.1 -1.25
      vertex 3.85 -13.5 -1.25
    endloop
  endfacet
  facet normal 0 0 -1
    outer loop
      vertex 3.85 -7.1 -1.25
      vertex -3.85 -7.1 -1.25
      vertex 3.85 7.1 -1.25
    endloop
  endfacet
  facet normal 0 0 -1
    outer loop
      vertex -3.85 -7.1 -1.25
      vertex 3.85 -13.5 -1.25
      vertex -3.85 -13.5 -1.25
    endloop
  endfacet
  facet normal 0 0 -1
    outer loop
      vertex 7.25 -19 -1.25
      vertex -3.85 -13.5 -1.25
      vertex 3.85 -13.5 -1.25
    endloop
  endfacet
  facet normal 0 0 -1
    outer loop
      vertex -7.25 -19 -1.25
      vertex -3.85 -13.5 -1.25
      vertex 7.25 -19 -1.25
    endloop
  endfacet
  facet normal -0 0 -1
    outer loop
      vertex -3.85 -13.5 -1.25
      vertex -7.25 -19 -1.25
      vertex -7.25 -13.5 -1.25
    endloop
  endfacet
  facet normal 0 0 -1
    outer loop
      vertex 3.85 -7.1 -1.25
      vertex 7.25 7.1 -1.25
      vertex 7.25 -7.1 -1.25
    endloop
  endfacet
  facet normal -0 0 -1
    outer loop
      vertex 7.25 7.1 -1.25
      vertex 3.85 -7.1 -1.25
      vertex 3.85 7.1 -1.25
    endloop
  endfacet
  facet normal 0 0 -1
    outer loop
      vertex 3.85 13.5 -1.25
      vertex 7.25 19 -1.25
      vertex 7.25 13.5 -1.25
    endloop
  endfacet
  facet normal 0 0 -1
    outer loop
      vertex -3.85 7.1 -1.25
      vertex 3.85 7.1 -1.25
      vertex -3.85 -7.1 -1.25
    endloop
  endfacet
  facet normal 0 0 -1
    outer loop
      vertex 3.85 7.1 -1.25
      vertex -3.85 7.1 -1.25
      vertex 3.85 13.5 -1.25
    endloop
  endfacet
  facet normal 0 0 -1
    outer loop
      vertex -3.85 13.5 -1.25
      vertex 3.85 13.5 -1.25
      vertex -3.85 7.1 -1.25
    endloop
  endfacet
  facet normal 0 0 -1
    outer loop
      vertex 3.85 13.5 -1.25
      vertex -3.85 13.5 -1.25
      vertex 7.25 19 -1.25
    endloop
  endfacet
  facet normal 0 0 -1
    outer loop
      vertex -7.25 19 -1.25
      vertex -3.85 13.5 -1.25
      vertex -7.25 13.5 -1.25
    endloop
  endfacet
  facet normal 0 0 -1
    outer loop
      vertex -3.85 13.5 -1.25
      vertex -7.25 19 -1.25
      vertex 7.25 19 -1.25
    endloop
  endfacet
  facet normal 0 -1 0
    outer loop
      vertex -7.25 -19 -1.25
      vertex 7.25 -19 1.25
      vertex -7.25 -19 1.25
    endloop
  endfacet
  facet normal 0 -1 -0
    outer loop
      vertex 7.25 -19 1.25
      vertex -7.25 -19 -1.25
      vertex 7.25 -19 -1.25
    endloop
  endfacet
  facet normal 1 -0 0
    outer loop
      vertex 3.85 7.1 1.25
      vertex 3.85 13.5 -1.25
      vertex 3.85 13.5 1.25
    endloop
  endfacet
  facet normal 1 0 0
    outer loop
      vertex 3.85 13.5 -1.25
      vertex 3.85 7.1 1.25
      vertex 3.85 7.1 -1.25
    endloop
  endfacet
  facet normal 0 -1 0
    outer loop
      vertex 3.85 13.5 -1.25
      vertex 7.25 13.5 1.25
      vertex 3.85 13.5 1.25
    endloop
  endfacet
  facet normal 0 -1 -0
    outer loop
      vertex 7.25 13.5 1.25
      vertex 3.85 13.5 -1.25
      vertex 7.25 13.5 -1.25
    endloop
  endfacet
  facet normal 0 1 -0
    outer loop
      vertex 7.25 7.1 -1.25
      vertex 3.85 7.1 1.25
      vertex 7.25 7.1 1.25
    endloop
  endfacet
  facet normal 0 1 0
    outer loop
      vertex 3.85 7.1 1.25
      vertex 7.25 7.1 -1.25
      vertex 3.85 7.1 -1.25
    endloop
  endfacet
  facet normal -1 0 0
    outer loop
      vertex -3.85 7.1 -1.25
      vertex -3.85 13.5 1.25
      vertex -3.85 13.5 -1.25
    endloop
  endfacet
  facet normal -1 -0 0
    outer loop
      vertex -3.85 13.5 1.25
      vertex -3.85 7.1 -1.25
      vertex -3.85 7.1 1.25
    endloop
  endfacet
  facet normal 0 -1 0
    outer loop
      vertex -7.25 13.5 -1.25
      vertex -3.85 13.5 1.25
      vertex -7.25 13.5 1.25
    endloop
  endfacet
  facet normal 0 -1 -0
    outer loop
      vertex -3.85 13.5 1.25
      vertex -7.25 13.5 -1.25
      vertex -3.85 13.5 -1.25
    endloop
  endfacet
  facet normal 0 1 -0
    outer loop
      vertex -3.85 7.1 -1.25
      vertex -7.25 7.1 1.25
      vertex -3.85 7.1 1.25
    endloop
  endfacet
  facet normal 0 1 0
    outer loop
      vertex -7.25 7.1 1.25
      vertex -3.85 7.1 -1.25
      vertex -7.25 7.1 -1.25
    endloop
  endfacet
  facet normal 1 -0 0
    outer loop
      vertex 3.85 -13.5 1.25
      vertex 3.85 -7.1 -1.25
      vertex 3.85 -7.1 1.25
    endloop
  endfacet
  facet normal 1 0 0
    outer loop
      vertex 3.85 -7.1 -1.25
      vertex 3.85 -13.5 1.25
      vertex 3.85 -13.5 -1.25
    endloop
  endfacet
  facet normal 0 -1 0
    outer loop
      vertex 3.85 -7.1 -1.25
      vertex 7.25 -7.1 1.25
      vertex 3.85 -7.1 1.25
    endloop
  endfacet
  facet normal 0 -1 -0
    outer loop
      vertex 7.25 -7.1 1.25
      vertex 3.85 -7.1 -1.25
      vertex 7.25 -7.1 -1.25
    endloop
  endfacet
  facet normal 0 1 -0
    outer loop
      vertex 7.25 -13.5 -1.25
      vertex 3.85 -13.5 1.25
      vertex 7.25 -13.5 1.25
    endloop
  endfacet
  facet normal 0 1 0
    outer loop
      vertex 3.85 -13.5 1.25
      vertex 7.25 -13.5 -1.25
      vertex 3.85 -13.5 -1.25
    endloop
  endfacet
  facet normal -1 0 0
    outer loop
      vertex -3.85 -13.5 -1.25
      vertex -3.85 -7.1 1.25
      vertex -3.85 -7.1 -1.25
    endloop
  endfacet
  facet normal -1 -0 0
    outer loop
      vertex -3.85 -7.1 1.25
      vertex -3.85 -13.5 -1.25
      vertex -3.85 -13.5 1.25
    endloop
  endfacet
  facet normal 0 1 -0
    outer loop
      vertex -3.85 -13.5 -1.25
      vertex -7.25 -13.5 1.25
      vertex -3.85 -13.5 1.25
    endloop
  endfacet
  facet normal 0 1 0
    outer loop
      vertex -7.25 -13.5 1.25
      vertex -3.85 -13.5 -1.25
      vertex -7.25 -13.5 -1.25
    endloop
  endfacet
  facet normal 0 -1 0
    outer loop
      vertex -7.25 -7.1 -1.25
      vertex -3.85 -7.1 1.25
      vertex -7.25 -7.1 1.25
    endloop
  endfacet
  facet normal 0 -1 -0
    outer loop
      vertex -3.85 -7.1 1.25
      vertex -7.25 -7.1 -1.25
      vertex -3.85 -7.1 -1.25
    endloop
  endfacet
endsolid OpenSCAD_Model
