solid OpenSCAD_Model
  facet normal 0 -0.750112 0.661311
    outer loop
      vertex -7.75 -9.71031 -1.84547
      vertex 7.75 -9.29487 -1.37424
      vertex -7.75 -9.29487 -1.37424
    endloop
  endfacet
  facet normal 0 -0.750112 0.661311
    outer loop
      vertex 7.75 -9.29487 -1.37424
      vertex -7.75 -9.71031 -1.84547
      vertex 7.75 -9.71031 -1.84547
    endloop
  endfacet
  facet normal 0 -0.278991 0.960294
    outer loop
      vertex -7.75 -13.9098 -4.51056
      vertex 7.75 -14.5131 -4.68583
      vertex 7.75 -13.9098 -4.51056
    endloop
  endfacet
  facet normal 0 -0.278991 0.960294
    outer loop
      vertex 7.75 -14.5131 -4.68583
      vertex -7.75 -13.9098 -4.51056
      vertex -7.75 -14.5131 -4.68583
    endloop
  endfacet
  facet normal 0 -0.453991 0.891006
    outer loop
      vertex -7.75 -12.1825 -3.76307
      vertex 7.75 -12.7422 -4.04827
      vertex 7.75 -12.1825 -3.76307
    endloop
  endfacet
  facet normal 0 -0.453991 0.891006
    outer loop
      vertex 7.75 -12.7422 -4.04827
      vertex -7.75 -12.1825 -3.76307
      vertex -7.75 -12.7422 -4.04827
    endloop
  endfacet
  facet normal 0 -0.917755 0.397148
    outer loop
      vertex -7.75 -7.95173 0.742208
      vertex 7.75 -7.70224 1.31876
      vertex -7.75 -7.70224 1.31876
    endloop
  endfacet
  facet normal 0 -0.917755 0.397148
    outer loop
      vertex 7.75 -7.70224 1.31876
      vertex -7.75 -7.95173 0.742208
      vertex 7.75 -7.95173 0.742208
    endloop
  endfacet
  facet normal -0 0.0314119 0.999507
    outer loop
      vertex 2.22045e-15 -17 -5
      vertex 7.75 -17.6279 -4.98027
      vertex 7.75 -17 -5
    endloop
  endfacet
  facet normal 0 0.0314119 0.999507
    outer loop
      vertex -7.75 -17.6279 -4.98027
      vertex 2.22045e-15 -17 -5
      vertex -7.75 -17 -5
    endloop
  endfacet
  facet normal 0 0.0314119 0.999507
    outer loop
      vertex 2.22045e-15 -17 -5
      vertex -7.75 -17.6279 -4.98027
      vertex 7.75 -17.6279 -4.98027
    endloop
  endfacet
  facet normal 0 -0.218144 0.975917
    outer loop
      vertex -7.75 -14.5131 -4.68583
      vertex 7.75 -15.1262 -4.82287
      vertex 7.75 -14.5131 -4.68583
    endloop
  endfacet
  facet normal 0 -0.218144 0.975917
    outer loop
      vertex 7.75 -15.1262 -4.82287
      vertex -7.75 -14.5131 -4.68583
      vertex -7.75 -15.1262 -4.82287
    endloop
  endfacet
  facet normal 0 -0.562082 0.827081
    outer loop
      vertex -7.75 -11.1221 -3.09017
      vertex 7.75 -11.6417 -3.44328
      vertex 7.75 -11.1221 -3.09017
    endloop
  endfacet
  facet normal 0 -0.562082 0.827081
    outer loop
      vertex 7.75 -11.6417 -3.44328
      vertex -7.75 -11.1221 -3.09017
      vertex -7.75 -11.6417 -3.44328
    endloop
  endfacet
  facet normal 0 -0.707107 0.707107
    outer loop
      vertex -7.75 -10.1545 -2.28969
      vertex 7.75 -9.71031 -1.84547
      vertex -7.75 -9.71031 -1.84547
    endloop
  endfacet
  facet normal 0 -0.707107 0.707107
    outer loop
      vertex 7.75 -9.71031 -1.84547
      vertex -7.75 -10.1545 -2.28969
      vertex 7.75 -10.1545 -2.28969
    endloop
  endfacet
  facet normal 0 -0.827081 0.562082
    outer loop
      vertex -7.75 -8.90983 -0.877852
      vertex 7.75 -8.55672 -0.358268
      vertex -7.75 -8.55672 -0.358268
    endloop
  endfacet
  facet normal 0 -0.827081 0.562082
    outer loop
      vertex 7.75 -8.55672 -0.358268
      vertex -7.75 -8.90983 -0.877852
      vertex 7.75 -8.90983 -0.877852
    endloop
  endfacet
  facet normal 0 -0.860742 0.509042
    outer loop
      vertex -7.75 -8.55672 -0.358268
      vertex 7.75 -8.23693 0.182464
      vertex -7.75 -8.23693 0.182464
    endloop
  endfacet
  facet normal 0 -0.860742 0.509042
    outer loop
      vertex 7.75 -8.23693 0.182464
      vertex -7.75 -8.55672 -0.358268
      vertex 7.75 -8.55672 -0.358268
    endloop
  endfacet
  facet normal 0 -0.995562 0.0941082
    outer loop
      vertex -7.75 -7.07885 3.74667
      vertex 7.75 -7.01973 4.3721
      vertex -7.75 -7.01973 4.3721
    endloop
  endfacet
  facet normal 0 -0.995562 0.0941082
    outer loop
      vertex 7.75 -7.01973 4.3721
      vertex -7.75 -7.07885 3.74667
      vertex 7.75 -7.07885 3.74667
    endloop
  endfacet
  facet normal 0 -0.940881 0.338738
    outer loop
      vertex -7.75 -7.70224 1.31876
      vertex 7.75 -7.48944 1.90983
      vertex -7.75 -7.48944 1.90983
    endloop
  endfacet
  facet normal 0 -0.940881 0.338738
    outer loop
      vertex 7.75 -7.48944 1.90983
      vertex -7.75 -7.70224 1.31876
      vertex 7.75 -7.70224 1.31876
    endloop
  endfacet
  facet normal 0 -0.975917 0.218144
    outer loop
      vertex -7.75 -7.31417 2.5131
      vertex 7.75 -7.17713 3.12619
      vertex -7.75 -7.17713 3.12619
    endloop
  endfacet
  facet normal 0 -0.975917 0.218144
    outer loop
      vertex 7.75 -7.17713 3.12619
      vertex -7.75 -7.31417 2.5131
      vertex 7.75 -7.31417 2.5131
    endloop
  endfacet
  facet normal 0 -0.0941082 0.995562
    outer loop
      vertex -7.75 -15.7467 -4.92115
      vertex 7.75 -16.3721 -4.98027
      vertex 7.75 -15.7467 -4.92115
    endloop
  endfacet
  facet normal 0 -0.0941082 0.995562
    outer loop
      vertex 7.75 -16.3721 -4.98027
      vertex -7.75 -15.7467 -4.92115
      vertex -7.75 -16.3721 -4.98027
    endloop
  endfacet
  facet normal 0 -0.156434 0.987688
    outer loop
      vertex -7.75 -15.1262 -4.82287
      vertex 7.75 -15.7467 -4.92115
      vertex 7.75 -15.1262 -4.82287
    endloop
  endfacet
  facet normal 0 -0.156434 0.987688
    outer loop
      vertex 7.75 -15.7467 -4.92115
      vertex -7.75 -15.1262 -4.82287
      vertex -7.75 -15.7467 -4.92115
    endloop
  endfacet
  facet normal 0 -0.397148 0.917755
    outer loop
      vertex -7.75 -12.7422 -4.04827
      vertex 7.75 -13.3188 -4.29776
      vertex 7.75 -12.7422 -4.04827
    endloop
  endfacet
  facet normal 0 -0.397148 0.917755
    outer loop
      vertex 7.75 -13.3188 -4.29776
      vertex -7.75 -12.7422 -4.04827
      vertex -7.75 -13.3188 -4.29776
    endloop
  endfacet
  facet normal 0 -0.338738 0.940881
    outer loop
      vertex -7.75 -13.3188 -4.29776
      vertex 7.75 -13.9098 -4.51056
      vertex 7.75 -13.3188 -4.29776
    endloop
  endfacet
  facet normal 0 -0.338738 0.940881
    outer loop
      vertex 7.75 -13.9098 -4.51056
      vertex -7.75 -13.3188 -4.29776
      vertex -7.75 -13.9098 -4.51056
    endloop
  endfacet
  facet normal 0 -0.509042 0.860742
    outer loop
      vertex -7.75 -11.6417 -3.44328
      vertex 7.75 -12.1825 -3.76307
      vertex 7.75 -11.6417 -3.44328
    endloop
  endfacet
  facet normal 0 -0.509042 0.860742
    outer loop
      vertex 7.75 -12.1825 -3.76307
      vertex -7.75 -11.6417 -3.44328
      vertex -7.75 -12.1825 -3.76307
    endloop
  endfacet
  facet normal 0 -0.661311 0.750112
    outer loop
      vertex -7.75 -10.1545 -2.28969
      vertex 7.75 -10.6258 -2.70513
      vertex 7.75 -10.1545 -2.28969
    endloop
  endfacet
  facet normal 0 -0.661311 0.750112
    outer loop
      vertex 7.75 -10.6258 -2.70513
      vertex -7.75 -10.1545 -2.28969
      vertex -7.75 -10.6258 -2.70513
    endloop
  endfacet
  facet normal 0 -0.612909 0.790154
    outer loop
      vertex -7.75 -10.6258 -2.70513
      vertex 7.75 -11.1221 -3.09017
      vertex 7.75 -10.6258 -2.70513
    endloop
  endfacet
  facet normal 0 -0.612909 0.790154
    outer loop
      vertex 7.75 -11.1221 -3.09017
      vertex -7.75 -10.6258 -2.70513
      vertex -7.75 -11.1221 -3.09017
    endloop
  endfacet
  facet normal 0 -0.790154 0.612909
    outer loop
      vertex -7.75 -9.29487 -1.37424
      vertex 7.75 -8.90983 -0.877852
      vertex -7.75 -8.90983 -0.877852
    endloop
  endfacet
  facet normal 0 -0.790154 0.612909
    outer loop
      vertex 7.75 -8.90983 -0.877852
      vertex -7.75 -9.29487 -1.37424
      vertex 7.75 -9.29487 -1.37424
    endloop
  endfacet
  facet normal 0 -0.999507 0.0314119
    outer loop
      vertex -7.75 -7.01973 4.3721
      vertex 0 -7 5
      vertex -7.75 -7 5
    endloop
  endfacet
  facet normal 0 -0.999507 0.0314119
    outer loop
      vertex 7.75 -7.01973 4.3721
      vertex 0 -7 5
      vertex -7.75 -7.01973 4.3721
    endloop
  endfacet
  facet normal 0 -0.999507 0.0314119
    outer loop
      vertex 0 -7 5
      vertex 7.75 -7.01973 4.3721
      vertex 7.75 -7 5
    endloop
  endfacet
  facet normal 0 -0.891006 0.453991
    outer loop
      vertex -7.75 -8.23693 0.182464
      vertex 7.75 -7.95173 0.742208
      vertex -7.75 -7.95173 0.742208
    endloop
  endfacet
  facet normal 0 -0.891006 0.453991
    outer loop
      vertex 7.75 -7.95173 0.742208
      vertex -7.75 -8.23693 0.182464
      vertex 7.75 -8.23693 0.182464
    endloop
  endfacet
  facet normal 0 -0.987688 0.156434
    outer loop
      vertex -7.75 -7.17713 3.12619
      vertex 7.75 -7.07885 3.74667
      vertex -7.75 -7.07885 3.74667
    endloop
  endfacet
  facet normal 0 -0.987688 0.156434
    outer loop
      vertex 7.75 -7.07885 3.74667
      vertex -7.75 -7.17713 3.12619
      vertex 7.75 -7.17713 3.12619
    endloop
  endfacet
  facet normal 0 -0.960294 0.278991
    outer loop
      vertex -7.75 -7.48944 1.90983
      vertex 7.75 -7.31417 2.5131
      vertex -7.75 -7.31417 2.5131
    endloop
  endfacet
  facet normal 0 -0.960294 0.278991
    outer loop
      vertex 7.75 -7.31417 2.5131
      vertex -7.75 -7.48944 1.90983
      vertex 7.75 -7.48944 1.90983
    endloop
  endfacet
  facet normal 0 -0.0314119 0.999507
    outer loop
      vertex 7.75 -16.3721 -4.98027
      vertex 2.22045e-15 -17 -5
      vertex 7.75 -17 -5
    endloop
  endfacet
  facet normal 0 -0.0314119 0.999507
    outer loop
      vertex -7.75 -16.3721 -4.98027
      vertex 2.22045e-15 -17 -5
      vertex 7.75 -16.3721 -4.98027
    endloop
  endfacet
  facet normal 0 -0.0314119 0.999507
    outer loop
      vertex 2.22045e-15 -17 -5
      vertex -7.75 -16.3721 -4.98027
      vertex -7.75 -17 -5
    endloop
  endfacet
  facet normal -0 0.0941082 0.995562
    outer loop
      vertex -7.75 -17.6279 -4.98027
      vertex 7.75 -17.75 -4.96873
      vertex 7.75 -17.6279 -4.98027
    endloop
  endfacet
  facet normal 0 0.0941082 0.995562
    outer loop
      vertex 7.75 -17.75 -4.96873
      vertex -7.75 -17.6279 -4.98027
      vertex -7.75 -17.75 -4.96873
    endloop
  endfacet
  facet normal 0 0.827081 0.562082
    outer loop
      vertex 7.75 8.90983 -0.877852
      vertex -7.75 8.55672 -0.358268
      vertex 7.75 8.55672 -0.358268
    endloop
  endfacet
  facet normal 0 0.827081 0.562082
    outer loop
      vertex -7.75 8.55672 -0.358268
      vertex 7.75 8.90983 -0.877852
      vertex -7.75 8.90983 -0.877852
    endloop
  endfacet
  facet normal -0 0.397148 0.917755
    outer loop
      vertex -7.75 13.3188 -4.29776
      vertex 7.75 12.7422 -4.04827
      vertex 7.75 13.3188 -4.29776
    endloop
  endfacet
  facet normal 0 0.397148 0.917755
    outer loop
      vertex 7.75 12.7422 -4.04827
      vertex -7.75 13.3188 -4.29776
      vertex -7.75 12.7422 -4.04827
    endloop
  endfacet
  facet normal -0 0.0314119 0.999507
    outer loop
      vertex 2.22045e-15 17 -5
      vertex 7.75 16.3721 -4.98027
      vertex 7.75 17 -5
    endloop
  endfacet
  facet normal 0 0.0314119 0.999507
    outer loop
      vertex -7.75 16.3721 -4.98027
      vertex 2.22045e-15 17 -5
      vertex -7.75 17 -5
    endloop
  endfacet
  facet normal 0 0.0314119 0.999507
    outer loop
      vertex 2.22045e-15 17 -5
      vertex -7.75 16.3721 -4.98027
      vertex 7.75 16.3721 -4.98027
    endloop
  endfacet
  facet normal -0 0.661311 0.750112
    outer loop
      vertex -7.75 10.6258 -2.70513
      vertex 7.75 10.1545 -2.28969
      vertex 7.75 10.6258 -2.70513
    endloop
  endfacet
  facet normal 0 0.661311 0.750112
    outer loop
      vertex 7.75 10.1545 -2.28969
      vertex -7.75 10.6258 -2.70513
      vertex -7.75 10.1545 -2.28969
    endloop
  endfacet
  facet normal -0 0.338738 0.940881
    outer loop
      vertex -7.75 13.9098 -4.51056
      vertex 7.75 13.3188 -4.29776
      vertex 7.75 13.9098 -4.51056
    endloop
  endfacet
  facet normal 0 0.338738 0.940881
    outer loop
      vertex 7.75 13.3188 -4.29776
      vertex -7.75 13.9098 -4.51056
      vertex -7.75 13.3188 -4.29776
    endloop
  endfacet
  facet normal 0 0.987688 0.156434
    outer loop
      vertex 7.75 7.17713 3.12619
      vertex -7.75 7.07885 3.74667
      vertex 7.75 7.07885 3.74667
    endloop
  endfacet
  facet normal 0 0.987688 0.156434
    outer loop
      vertex -7.75 7.07885 3.74667
      vertex 7.75 7.17713 3.12619
      vertex -7.75 7.17713 3.12619
    endloop
  endfacet
  facet normal -0 0.509042 0.860742
    outer loop
      vertex -7.75 12.1825 -3.76307
      vertex 7.75 11.6417 -3.44328
      vertex 7.75 12.1825 -3.76307
    endloop
  endfacet
  facet normal 0 0.509042 0.860742
    outer loop
      vertex 7.75 11.6417 -3.44328
      vertex -7.75 12.1825 -3.76307
      vertex -7.75 11.6417 -3.44328
    endloop
  endfacet
  facet normal 0 -0.0941082 0.995562
    outer loop
      vertex -7.75 17.75 -4.96873
      vertex 7.75 17.6279 -4.98027
      vertex 7.75 17.75 -4.96873
    endloop
  endfacet
  facet normal 0 -0.0941082 0.995562
    outer loop
      vertex 7.75 17.6279 -4.98027
      vertex -7.75 17.75 -4.96873
      vertex -7.75 17.6279 -4.98027
    endloop
  endfacet
  facet normal 0 -0.0314119 0.999507
    outer loop
      vertex 7.75 17.6279 -4.98027
      vertex 2.22045e-15 17 -5
      vertex 7.75 17 -5
    endloop
  endfacet
  facet normal 0 -0.0314119 0.999507
    outer loop
      vertex -7.75 17.6279 -4.98027
      vertex 2.22045e-15 17 -5
      vertex 7.75 17.6279 -4.98027
    endloop
  endfacet
  facet normal 0 -0.0314119 0.999507
    outer loop
      vertex 2.22045e-15 17 -5
      vertex -7.75 17.6279 -4.98027
      vertex -7.75 17 -5
    endloop
  endfacet
  facet normal -0 0.156434 0.987688
    outer loop
      vertex -7.75 15.7467 -4.92115
      vertex 7.75 15.1262 -4.82287
      vertex 7.75 15.7467 -4.92115
    endloop
  endfacet
  facet normal 0 0.156434 0.987688
    outer loop
      vertex 7.75 15.1262 -4.82287
      vertex -7.75 15.7467 -4.92115
      vertex -7.75 15.1262 -4.82287
    endloop
  endfacet
  facet normal 0 0.999507 0.0314119
    outer loop
      vertex 7.75 7.01973 4.3721
      vertex 0 7 5
      vertex 7.75 7 5
    endloop
  endfacet
  facet normal -0 0.999507 0.0314119
    outer loop
      vertex -7.75 7.01973 4.3721
      vertex 0 7 5
      vertex 7.75 7.01973 4.3721
    endloop
  endfacet
  facet normal 0 0.999507 0.0314119
    outer loop
      vertex 0 7 5
      vertex -7.75 7.01973 4.3721
      vertex -7.75 7 5
    endloop
  endfacet
  facet normal 0 0.940881 0.338738
    outer loop
      vertex 7.75 7.70224 1.31876
      vertex -7.75 7.48944 1.90983
      vertex 7.75 7.48944 1.90983
    endloop
  endfacet
  facet normal 0 0.940881 0.338738
    outer loop
      vertex -7.75 7.48944 1.90983
      vertex 7.75 7.70224 1.31876
      vertex -7.75 7.70224 1.31876
    endloop
  endfacet
  facet normal 0 0.975917 0.218144
    outer loop
      vertex 7.75 7.31417 2.5131
      vertex -7.75 7.17713 3.12619
      vertex 7.75 7.17713 3.12619
    endloop
  endfacet
  facet normal 0 0.975917 0.218144
    outer loop
      vertex -7.75 7.17713 3.12619
      vertex 7.75 7.31417 2.5131
      vertex -7.75 7.31417 2.5131
    endloop
  endfacet
  facet normal 0 0.790154 0.612909
    outer loop
      vertex 7.75 9.29487 -1.37424
      vertex -7.75 8.90983 -0.877852
      vertex 7.75 8.90983 -0.877852
    endloop
  endfacet
  facet normal 0 0.790154 0.612909
    outer loop
      vertex -7.75 8.90983 -0.877852
      vertex 7.75 9.29487 -1.37424
      vertex -7.75 9.29487 -1.37424
    endloop
  endfacet
  facet normal 0 0.707107 0.707107
    outer loop
      vertex 7.75 10.1545 -2.28969
      vertex -7.75 9.71031 -1.84547
      vertex 7.75 9.71031 -1.84547
    endloop
  endfacet
  facet normal 0 0.707107 0.707107
    outer loop
      vertex -7.75 9.71031 -1.84547
      vertex 7.75 10.1545 -2.28969
      vertex -7.75 10.1545 -2.28969
    endloop
  endfacet
  facet normal 0 0.860742 0.509042
    outer loop
      vertex 7.75 8.55672 -0.358268
      vertex -7.75 8.23693 0.182464
      vertex 7.75 8.23693 0.182464
    endloop
  endfacet
  facet normal 0 0.860742 0.509042
    outer loop
      vertex -7.75 8.23693 0.182464
      vertex 7.75 8.55672 -0.358268
      vertex -7.75 8.55672 -0.358268
    endloop
  endfacet
  facet normal 0 0.917755 0.397148
    outer loop
      vertex 7.75 7.95173 0.742208
      vertex -7.75 7.70224 1.31876
      vertex 7.75 7.70224 1.31876
    endloop
  endfacet
  facet normal 0 0.917755 0.397148
    outer loop
      vertex -7.75 7.70224 1.31876
      vertex 7.75 7.95173 0.742208
      vertex -7.75 7.95173 0.742208
    endloop
  endfacet
  facet normal -0 0.453991 0.891006
    outer loop
      vertex -7.75 12.7422 -4.04827
      vertex 7.75 12.1825 -3.76307
      vertex 7.75 12.7422 -4.04827
    endloop
  endfacet
  facet normal 0 0.453991 0.891006
    outer loop
      vertex 7.75 12.1825 -3.76307
      vertex -7.75 12.7422 -4.04827
      vertex -7.75 12.1825 -3.76307
    endloop
  endfacet
  facet normal -0 0.562082 0.827081
    outer loop
      vertex -7.75 11.6417 -3.44328
      vertex 7.75 11.1221 -3.09017
      vertex 7.75 11.6417 -3.44328
    endloop
  endfacet
  facet normal 0 0.562082 0.827081
    outer loop
      vertex 7.75 11.1221 -3.09017
      vertex -7.75 11.6417 -3.44328
      vertex -7.75 11.1221 -3.09017
    endloop
  endfacet
  facet normal -0 0.0941082 0.995562
    outer loop
      vertex -7.75 16.3721 -4.98027
      vertex 7.75 15.7467 -4.92115
      vertex 7.75 16.3721 -4.98027
    endloop
  endfacet
  facet normal 0 0.0941082 0.995562
    outer loop
      vertex 7.75 15.7467 -4.92115
      vertex -7.75 16.3721 -4.98027
      vertex -7.75 15.7467 -4.92115
    endloop
  endfacet
  facet normal -0 0.278991 0.960294
    outer loop
      vertex -7.75 14.5131 -4.68583
      vertex 7.75 13.9098 -4.51056
      vertex 7.75 14.5131 -4.68583
    endloop
  endfacet
  facet normal 0 0.278991 0.960294
    outer loop
      vertex 7.75 13.9098 -4.51056
      vertex -7.75 14.5131 -4.68583
      vertex -7.75 13.9098 -4.51056
    endloop
  endfacet
  facet normal 0 0.995562 0.0941082
    outer loop
      vertex 7.75 7.07885 3.74667
      vertex -7.75 7.01973 4.3721
      vertex 7.75 7.01973 4.3721
    endloop
  endfacet
  facet normal 0 0.995562 0.0941082
    outer loop
      vertex -7.75 7.01973 4.3721
      vertex 7.75 7.07885 3.74667
      vertex -7.75 7.07885 3.74667
    endloop
  endfacet
  facet normal 0 0.960294 0.278991
    outer loop
      vertex 7.75 7.48944 1.90983
      vertex -7.75 7.31417 2.5131
      vertex 7.75 7.31417 2.5131
    endloop
  endfacet
  facet normal 0 0.960294 0.278991
    outer loop
      vertex -7.75 7.31417 2.5131
      vertex 7.75 7.48944 1.90983
      vertex -7.75 7.48944 1.90983
    endloop
  endfacet
  facet normal 0 0.750112 0.661311
    outer loop
      vertex 7.75 9.71031 -1.84547
      vertex -7.75 9.29487 -1.37424
      vertex 7.75 9.29487 -1.37424
    endloop
  endfacet
  facet normal 0 0.750112 0.661311
    outer loop
      vertex -7.75 9.29487 -1.37424
      vertex 7.75 9.71031 -1.84547
      vertex -7.75 9.71031 -1.84547
    endloop
  endfacet
  facet normal 0 0.891006 0.453991
    outer loop
      vertex 7.75 8.23693 0.182464
      vertex -7.75 7.95173 0.742208
      vertex 7.75 7.95173 0.742208
    endloop
  endfacet
  facet normal 0 0.891006 0.453991
    outer loop
      vertex -7.75 7.95173 0.742208
      vertex 7.75 8.23693 0.182464
      vertex -7.75 8.23693 0.182464
    endloop
  endfacet
  facet normal -0 0.612909 0.790154
    outer loop
      vertex -7.75 11.1221 -3.09017
      vertex 7.75 10.6258 -2.70513
      vertex 7.75 11.1221 -3.09017
    endloop
  endfacet
  facet normal 0 0.612909 0.790154
    outer loop
      vertex 7.75 10.6258 -2.70513
      vertex -7.75 11.1221 -3.09017
      vertex -7.75 10.6258 -2.70513
    endloop
  endfacet
  facet normal -0 0.218144 0.975917
    outer loop
      vertex -7.75 15.1262 -4.82287
      vertex 7.75 14.5131 -4.68583
      vertex 7.75 15.1262 -4.82287
    endloop
  endfacet
  facet normal 0 0.218144 0.975917
    outer loop
      vertex 7.75 14.5131 -4.68583
      vertex -7.75 15.1262 -4.82287
      vertex -7.75 14.5131 -4.68583
    endloop
  endfacet
  facet normal -1 0 0
    outer loop
      vertex -7.75 17.75 -5
      vertex -7.75 17.6279 -4.98027
      vertex -7.75 17.75 -4.96873
    endloop
  endfacet
  facet normal -1 0 -0
    outer loop
      vertex -7.75 17.6279 -4.98027
      vertex -7.75 17.75 -5
      vertex -7.75 17 -5
    endloop
  endfacet
  facet normal -1 0 0
    outer loop
      vertex -7.75 -17.75 -5
      vertex -7.75 -17.6279 -4.98027
      vertex -7.75 -17 -5
    endloop
  endfacet
  facet normal -1 -0 0
    outer loop
      vertex -7.75 -17.6279 -4.98027
      vertex -7.75 -17.75 -5
      vertex -7.75 -17.75 -4.96873
    endloop
  endfacet
  facet normal -1 0 0
    outer loop
      vertex -7.75 7.01973 4.3721
      vertex -7.75 -7 5
      vertex -7.75 7 5
    endloop
  endfacet
  facet normal -1 0 0
    outer loop
      vertex -7.75 -7.01973 4.3721
      vertex -7.75 7.01973 4.3721
      vertex -7.75 7.07885 3.74667
    endloop
  endfacet
  facet normal -1 0 0
    outer loop
      vertex -7.75 -7.07885 3.74667
      vertex -7.75 7.07885 3.74667
      vertex -7.75 7.17713 3.12619
    endloop
  endfacet
  facet normal -1 0 0
    outer loop
      vertex -7.75 -7.17713 3.12619
      vertex -7.75 7.17713 3.12619
      vertex -7.75 7.31417 2.5131
    endloop
  endfacet
  facet normal -1 0 0
    outer loop
      vertex -7.75 -7.31417 2.5131
      vertex -7.75 7.31417 2.5131
      vertex -7.75 7.48944 1.90983
    endloop
  endfacet
  facet normal -1 0 0
    outer loop
      vertex -7.75 -7.48944 1.90983
      vertex -7.75 7.48944 1.90983
      vertex -7.75 7.70224 1.31876
    endloop
  endfacet
  facet normal -1 0 0
    outer loop
      vertex -7.75 -7.70224 1.31876
      vertex -7.75 7.70224 1.31876
      vertex -7.75 7.95173 0.742208
    endloop
  endfacet
  facet normal -1 0 0
    outer loop
      vertex -7.75 -7.95173 0.742208
      vertex -7.75 7.95173 0.742208
      vertex -7.75 8.23693 0.182464
    endloop
  endfacet
  facet normal -1 0 0
    outer loop
      vertex -7.75 -8.23693 0.182464
      vertex -7.75 8.23693 0.182464
      vertex -7.75 8.55672 -0.358268
    endloop
  endfacet
  facet normal -1 0 0
    outer loop
      vertex -7.75 -8.55672 -0.358268
      vertex -7.75 8.55672 -0.358268
      vertex -7.75 8.90983 -0.877852
    endloop
  endfacet
  facet normal -1 0 0
    outer loop
      vertex -7.75 -8.90983 -0.877852
      vertex -7.75 8.90983 -0.877852
      vertex -7.75 9.29487 -1.37424
    endloop
  endfacet
  facet normal -1 0 0
    outer loop
      vertex -7.75 -9.29487 -1.37424
      vertex -7.75 9.29487 -1.37424
      vertex -7.75 9.71031 -1.84547
    endloop
  endfacet
  facet normal -1 0 0
    outer loop
      vertex -7.75 -9.71031 -1.84547
      vertex -7.75 9.71031 -1.84547
      vertex -7.75 10.1545 -2.28969
    endloop
  endfacet
  facet normal -1 0 0
    outer loop
      vertex -7.75 -10.1545 -2.28969
      vertex -7.75 10.1545 -2.28969
      vertex -7.75 10.6258 -2.70513
    endloop
  endfacet
  facet normal -1 0 0
    outer loop
      vertex -7.75 -10.6258 -2.70513
      vertex -7.75 10.6258 -2.70513
      vertex -7.75 11.1221 -3.09017
    endloop
  endfacet
  facet normal -1 0 0
    outer loop
      vertex -7.75 -11.1221 -3.09017
      vertex -7.75 11.1221 -3.09017
      vertex -7.75 11.6417 -3.44328
    endloop
  endfacet
  facet normal -1 0 0
    outer loop
      vertex -7.75 -11.6417 -3.44328
      vertex -7.75 11.6417 -3.44328
      vertex -7.75 12.1825 -3.76307
    endloop
  endfacet
  facet normal -1 0 0
    outer loop
      vertex -7.75 -12.1825 -3.76307
      vertex -7.75 12.1825 -3.76307
      vertex -7.75 12.7422 -4.04827
    endloop
  endfacet
  facet normal -1 0 0
    outer loop
      vertex -7.75 7.01973 4.3721
      vertex -7.75 -7.01973 4.3721
      vertex -7.75 -7 5
    endloop
  endfacet
  facet normal -1 0 0
    outer loop
      vertex -7.75 -12.7422 -4.04827
      vertex -7.75 12.7422 -4.04827
      vertex -7.75 13.3188 -4.29776
    endloop
  endfacet
  facet normal -1 0 0
    outer loop
      vertex -7.75 7.07885 3.74667
      vertex -7.75 -7.07885 3.74667
      vertex -7.75 -7.01973 4.3721
    endloop
  endfacet
  facet normal -1 0 0
    outer loop
      vertex -7.75 7.17713 3.12619
      vertex -7.75 -7.17713 3.12619
      vertex -7.75 -7.07885 3.74667
    endloop
  endfacet
  facet normal -1 0 0
    outer loop
      vertex -7.75 7.31417 2.5131
      vertex -7.75 -7.31417 2.5131
      vertex -7.75 -7.17713 3.12619
    endloop
  endfacet
  facet normal -1 0 0
    outer loop
      vertex -7.75 -13.3188 -4.29776
      vertex -7.75 13.3188 -4.29776
      vertex -7.75 13.9098 -4.51056
    endloop
  endfacet
  facet normal -1 0 0
    outer loop
      vertex -7.75 7.48944 1.90983
      vertex -7.75 -7.48944 1.90983
      vertex -7.75 -7.31417 2.5131
    endloop
  endfacet
  facet normal -1 0 0
    outer loop
      vertex -7.75 7.70224 1.31876
      vertex -7.75 -7.70224 1.31876
      vertex -7.75 -7.48944 1.90983
    endloop
  endfacet
  facet normal -1 0 0
    outer loop
      vertex -7.75 -13.9098 -4.51056
      vertex -7.75 13.9098 -4.51056
      vertex -7.75 14.5131 -4.68583
    endloop
  endfacet
  facet normal -1 0 0
    outer loop
      vertex -7.75 7.95173 0.742208
      vertex -7.75 -7.95173 0.742208
      vertex -7.75 -7.70224 1.31876
    endloop
  endfacet
  facet normal -1 0 0
    outer loop
      vertex -7.75 8.23693 0.182464
      vertex -7.75 -8.23693 0.182464
      vertex -7.75 -7.95173 0.742208
    endloop
  endfacet
  facet normal -1 0 0
    outer loop
      vertex -7.75 -14.5131 -4.68583
      vertex -7.75 14.5131 -4.68583
      vertex -7.75 15.1262 -4.82287
    endloop
  endfacet
  facet normal -1 0 0
    outer loop
      vertex -7.75 8.55672 -0.358268
      vertex -7.75 -8.55672 -0.358268
      vertex -7.75 -8.23693 0.182464
    endloop
  endfacet
  facet normal -1 0 0
    outer loop
      vertex -7.75 8.90983 -0.877852
      vertex -7.75 -8.90983 -0.877852
      vertex -7.75 -8.55672 -0.358268
    endloop
  endfacet
  facet normal -1 0 0
    outer loop
      vertex -7.75 9.29487 -1.37424
      vertex -7.75 -9.29487 -1.37424
      vertex -7.75 -8.90983 -0.877852
    endloop
  endfacet
  facet normal -1 0 0
    outer loop
      vertex -7.75 -15.1262 -4.82287
      vertex -7.75 15.1262 -4.82287
      vertex -7.75 15.7467 -4.92115
    endloop
  endfacet
  facet normal -1 0 0
    outer loop
      vertex -7.75 9.71031 -1.84547
      vertex -7.75 -9.71031 -1.84547
      vertex -7.75 -9.29487 -1.37424
    endloop
  endfacet
  facet normal -1 0 0
    outer loop
      vertex -7.75 10.1545 -2.28969
      vertex -7.75 -10.1545 -2.28969
      vertex -7.75 -9.71031 -1.84547
    endloop
  endfacet
  facet normal -1 0 0
    outer loop
      vertex -7.75 10.6258 -2.70513
      vertex -7.75 -10.6258 -2.70513
      vertex -7.75 -10.1545 -2.28969
    endloop
  endfacet
  facet normal -1 0 0
    outer loop
      vertex -7.75 -15.7467 -4.92115
      vertex -7.75 15.7467 -4.92115
      vertex -7.75 16.3721 -4.98027
    endloop
  endfacet
  facet normal -1 0 0
    outer loop
      vertex -7.75 11.1221 -3.09017
      vertex -7.75 -11.1221 -3.09017
      vertex -7.75 -10.6258 -2.70513
    endloop
  endfacet
  facet normal -1 0 0
    outer loop
      vertex -7.75 11.6417 -3.44328
      vertex -7.75 -11.6417 -3.44328
      vertex -7.75 -11.1221 -3.09017
    endloop
  endfacet
  facet normal -1 0 0
    outer loop
      vertex -7.75 12.1825 -3.76307
      vertex -7.75 -12.1825 -3.76307
      vertex -7.75 -11.6417 -3.44328
    endloop
  endfacet
  facet normal -1 0 0
    outer loop
      vertex -7.75 12.7422 -4.04827
      vertex -7.75 -12.7422 -4.04827
      vertex -7.75 -12.1825 -3.76307
    endloop
  endfacet
  facet normal -1 0 0
    outer loop
      vertex -7.75 13.3188 -4.29776
      vertex -7.75 -13.3188 -4.29776
      vertex -7.75 -12.7422 -4.04827
    endloop
  endfacet
  facet normal -1 0 0
    outer loop
      vertex -7.75 -16.3721 -4.98027
      vertex -7.75 16.3721 -4.98027
      vertex -7.75 17 -5
    endloop
  endfacet
  facet normal -1 0 0
    outer loop
      vertex -7.75 13.9098 -4.51056
      vertex -7.75 -13.9098 -4.51056
      vertex -7.75 -13.3188 -4.29776
    endloop
  endfacet
  facet normal -1 0 0
    outer loop
      vertex -7.75 14.5131 -4.68583
      vertex -7.75 -14.5131 -4.68583
      vertex -7.75 -13.9098 -4.51056
    endloop
  endfacet
  facet normal -1 0 0
    outer loop
      vertex -7.75 15.1262 -4.82287
      vertex -7.75 -15.1262 -4.82287
      vertex -7.75 -14.5131 -4.68583
    endloop
  endfacet
  facet normal -1 0 0
    outer loop
      vertex -7.75 15.7467 -4.92115
      vertex -7.75 -15.7467 -4.92115
      vertex -7.75 -15.1262 -4.82287
    endloop
  endfacet
  facet normal -1 0 0
    outer loop
      vertex -7.75 16.3721 -4.98027
      vertex -7.75 -16.3721 -4.98027
      vertex -7.75 -15.7467 -4.92115
    endloop
  endfacet
  facet normal -1 0 -0
    outer loop
      vertex -7.75 -16.3721 -4.98027
      vertex -7.75 17 -5
      vertex -7.75 -17 -5
    endloop
  endfacet
  facet normal 0 0 1
    outer loop
      vertex 7.75 7 5
      vertex 5.35 5.35 5
      vertex 7.75 -7 5
    endloop
  endfacet
  facet normal -0 0 1
    outer loop
      vertex 0 7 5
      vertex 5.35 5.35 5
      vertex 7.75 7 5
    endloop
  endfacet
  facet normal 0 0 1
    outer loop
      vertex 0 7 5
      vertex -5.35 5.35 5
      vertex 5.35 5.35 5
    endloop
  endfacet
  facet normal 0 0 1
    outer loop
      vertex -5.35 5.35 5
      vertex -7.75 7 5
      vertex -5.35 -5.35 5
    endloop
  endfacet
  facet normal -0 0 1
    outer loop
      vertex -7.75 7 5
      vertex -5.35 5.35 5
      vertex 0 7 5
    endloop
  endfacet
  facet normal -0 0 1
    outer loop
      vertex 5.35 -5.35 5
      vertex 7.75 -7 5
      vertex 5.35 5.35 5
    endloop
  endfacet
  facet normal 0 0 1
    outer loop
      vertex 5.35 -5.35 5
      vertex 0 -7 5
      vertex 7.75 -7 5
    endloop
  endfacet
  facet normal -0 0 1
    outer loop
      vertex -5.35 -5.35 5
      vertex 0 -7 5
      vertex 5.35 -5.35 5
    endloop
  endfacet
  facet normal 0 0 1
    outer loop
      vertex -5.35 -5.35 5
      vertex -7.75 -7 5
      vertex 0 -7 5
    endloop
  endfacet
  facet normal 0 0 1
    outer loop
      vertex -7.75 -7 5
      vertex -5.35 -5.35 5
      vertex -7.75 7 5
    endloop
  endfacet
  facet normal 1 -0 0
    outer loop
      vertex 7.75 17.6279 -4.98027
      vertex 7.75 17.75 -5
      vertex 7.75 17.75 -4.96873
    endloop
  endfacet
  facet normal 1 0 0
    outer loop
      vertex 7.75 17.75 -5
      vertex 7.75 17.6279 -4.98027
      vertex 7.75 17 -5
    endloop
  endfacet
  facet normal 1 -0 0
    outer loop
      vertex 7.75 -7 5
      vertex 7.75 7.01973 4.3721
      vertex 7.75 7 5
    endloop
  endfacet
  facet normal 1 0 0
    outer loop
      vertex 7.75 -7.01973 4.3721
      vertex 7.75 7.01973 4.3721
      vertex 7.75 -7 5
    endloop
  endfacet
  facet normal 1 0 0
    outer loop
      vertex 7.75 7.01973 4.3721
      vertex 7.75 -7.01973 4.3721
      vertex 7.75 7.07885 3.74667
    endloop
  endfacet
  facet normal 1 0 0
    outer loop
      vertex 7.75 -7.07885 3.74667
      vertex 7.75 7.07885 3.74667
      vertex 7.75 -7.01973 4.3721
    endloop
  endfacet
  facet normal 1 0 0
    outer loop
      vertex 7.75 7.07885 3.74667
      vertex 7.75 -7.07885 3.74667
      vertex 7.75 7.17713 3.12619
    endloop
  endfacet
  facet normal 1 0 0
    outer loop
      vertex 7.75 -7.17713 3.12619
      vertex 7.75 7.17713 3.12619
      vertex 7.75 -7.07885 3.74667
    endloop
  endfacet
  facet normal 1 0 0
    outer loop
      vertex 7.75 7.17713 3.12619
      vertex 7.75 -7.17713 3.12619
      vertex 7.75 7.31417 2.5131
    endloop
  endfacet
  facet normal 1 0 0
    outer loop
      vertex 7.75 -7.31417 2.5131
      vertex 7.75 7.31417 2.5131
      vertex 7.75 -7.17713 3.12619
    endloop
  endfacet
  facet normal 1 0 0
    outer loop
      vertex 7.75 7.31417 2.5131
      vertex 7.75 -7.31417 2.5131
      vertex 7.75 7.48944 1.90983
    endloop
  endfacet
  facet normal 1 0 0
    outer loop
      vertex 7.75 -7.48944 1.90983
      vertex 7.75 7.48944 1.90983
      vertex 7.75 -7.31417 2.5131
    endloop
  endfacet
  facet normal 1 0 0
    outer loop
      vertex 7.75 7.48944 1.90983
      vertex 7.75 -7.48944 1.90983
      vertex 7.75 7.70224 1.31876
    endloop
  endfacet
  facet normal 1 0 0
    outer loop
      vertex 7.75 -7.70224 1.31876
      vertex 7.75 7.70224 1.31876
      vertex 7.75 -7.48944 1.90983
    endloop
  endfacet
  facet normal 1 0 0
    outer loop
      vertex 7.75 7.70224 1.31876
      vertex 7.75 -7.70224 1.31876
      vertex 7.75 7.95173 0.742208
    endloop
  endfacet
  facet normal 1 0 0
    outer loop
      vertex 7.75 -7.95173 0.742208
      vertex 7.75 7.95173 0.742208
      vertex 7.75 -7.70224 1.31876
    endloop
  endfacet
  facet normal 1 0 0
    outer loop
      vertex 7.75 7.95173 0.742208
      vertex 7.75 -7.95173 0.742208
      vertex 7.75 8.23693 0.182464
    endloop
  endfacet
  facet normal 1 0 0
    outer loop
      vertex 7.75 -8.23693 0.182464
      vertex 7.75 8.23693 0.182464
      vertex 7.75 -7.95173 0.742208
    endloop
  endfacet
  facet normal 1 0 0
    outer loop
      vertex 7.75 8.23693 0.182464
      vertex 7.75 -8.23693 0.182464
      vertex 7.75 8.55672 -0.358268
    endloop
  endfacet
  facet normal 1 0 0
    outer loop
      vertex 7.75 -8.55672 -0.358268
      vertex 7.75 8.55672 -0.358268
      vertex 7.75 -8.23693 0.182464
    endloop
  endfacet
  facet normal 1 0 0
    outer loop
      vertex 7.75 8.55672 -0.358268
      vertex 7.75 -8.55672 -0.358268
      vertex 7.75 8.90983 -0.877852
    endloop
  endfacet
  facet normal 1 0 0
    outer loop
      vertex 7.75 -8.90983 -0.877852
      vertex 7.75 8.90983 -0.877852
      vertex 7.75 -8.55672 -0.358268
    endloop
  endfacet
  facet normal 1 0 0
    outer loop
      vertex 7.75 8.90983 -0.877852
      vertex 7.75 -8.90983 -0.877852
      vertex 7.75 9.29487 -1.37424
    endloop
  endfacet
  facet normal 1 0 0
    outer loop
      vertex 7.75 -9.29487 -1.37424
      vertex 7.75 9.29487 -1.37424
      vertex 7.75 -8.90983 -0.877852
    endloop
  endfacet
  facet normal 1 0 0
    outer loop
      vertex 7.75 9.29487 -1.37424
      vertex 7.75 -9.29487 -1.37424
      vertex 7.75 9.71031 -1.84547
    endloop
  endfacet
  facet normal 1 0 0
    outer loop
      vertex 7.75 -9.71031 -1.84547
      vertex 7.75 9.71031 -1.84547
      vertex 7.75 -9.29487 -1.37424
    endloop
  endfacet
  facet normal 1 0 0
    outer loop
      vertex 7.75 9.71031 -1.84547
      vertex 7.75 -9.71031 -1.84547
      vertex 7.75 10.1545 -2.28969
    endloop
  endfacet
  facet normal 1 0 0
    outer loop
      vertex 7.75 -10.1545 -2.28969
      vertex 7.75 10.1545 -2.28969
      vertex 7.75 -9.71031 -1.84547
    endloop
  endfacet
  facet normal 1 0 0
    outer loop
      vertex 7.75 10.1545 -2.28969
      vertex 7.75 -10.1545 -2.28969
      vertex 7.75 10.6258 -2.70513
    endloop
  endfacet
  facet normal 1 0 0
    outer loop
      vertex 7.75 -10.6258 -2.70513
      vertex 7.75 10.6258 -2.70513
      vertex 7.75 -10.1545 -2.28969
    endloop
  endfacet
  facet normal 1 0 0
    outer loop
      vertex 7.75 10.6258 -2.70513
      vertex 7.75 -10.6258 -2.70513
      vertex 7.75 11.1221 -3.09017
    endloop
  endfacet
  facet normal 1 0 0
    outer loop
      vertex 7.75 -11.1221 -3.09017
      vertex 7.75 11.1221 -3.09017
      vertex 7.75 -10.6258 -2.70513
    endloop
  endfacet
  facet normal 1 0 0
    outer loop
      vertex 7.75 11.1221 -3.09017
      vertex 7.75 -11.1221 -3.09017
      vertex 7.75 11.6417 -3.44328
    endloop
  endfacet
  facet normal 1 0 0
    outer loop
      vertex 7.75 -11.6417 -3.44328
      vertex 7.75 11.6417 -3.44328
      vertex 7.75 -11.1221 -3.09017
    endloop
  endfacet
  facet normal 1 0 0
    outer loop
      vertex 7.75 11.6417 -3.44328
      vertex 7.75 -11.6417 -3.44328
      vertex 7.75 12.1825 -3.76307
    endloop
  endfacet
  facet normal 1 0 0
    outer loop
      vertex 7.75 -12.1825 -3.76307
      vertex 7.75 12.1825 -3.76307
      vertex 7.75 -11.6417 -3.44328
    endloop
  endfacet
  facet normal 1 0 0
    outer loop
      vertex 7.75 12.1825 -3.76307
      vertex 7.75 -12.1825 -3.76307
      vertex 7.75 12.7422 -4.04827
    endloop
  endfacet
  facet normal 1 0 0
    outer loop
      vertex 7.75 -12.7422 -4.04827
      vertex 7.75 12.7422 -4.04827
      vertex 7.75 -12.1825 -3.76307
    endloop
  endfacet
  facet normal 1 0 0
    outer loop
      vertex 7.75 12.7422 -4.04827
      vertex 7.75 -12.7422 -4.04827
      vertex 7.75 13.3188 -4.29776
    endloop
  endfacet
  facet normal 1 0 0
    outer loop
      vertex 7.75 -13.3188 -4.29776
      vertex 7.75 13.3188 -4.29776
      vertex 7.75 -12.7422 -4.04827
    endloop
  endfacet
  facet normal 1 0 0
    outer loop
      vertex 7.75 13.3188 -4.29776
      vertex 7.75 -13.3188 -4.29776
      vertex 7.75 13.9098 -4.51056
    endloop
  endfacet
  facet normal 1 0 0
    outer loop
      vertex 7.75 -13.9098 -4.51056
      vertex 7.75 13.9098 -4.51056
      vertex 7.75 -13.3188 -4.29776
    endloop
  endfacet
  facet normal 1 0 0
    outer loop
      vertex 7.75 13.9098 -4.51056
      vertex 7.75 -13.9098 -4.51056
      vertex 7.75 14.5131 -4.68583
    endloop
  endfacet
  facet normal 1 0 0
    outer loop
      vertex 7.75 -14.5131 -4.68583
      vertex 7.75 14.5131 -4.68583
      vertex 7.75 -13.9098 -4.51056
    endloop
  endfacet
  facet normal 1 0 0
    outer loop
      vertex 7.75 14.5131 -4.68583
      vertex 7.75 -14.5131 -4.68583
      vertex 7.75 15.1262 -4.82287
    endloop
  endfacet
  facet normal 1 0 0
    outer loop
      vertex 7.75 -15.1262 -4.82287
      vertex 7.75 15.1262 -4.82287
      vertex 7.75 -14.5131 -4.68583
    endloop
  endfacet
  facet normal 1 0 0
    outer loop
      vertex 7.75 15.1262 -4.82287
      vertex 7.75 -15.1262 -4.82287
      vertex 7.75 15.7467 -4.92115
    endloop
  endfacet
  facet normal 1 0 0
    outer loop
      vertex 7.75 -15.7467 -4.92115
      vertex 7.75 15.7467 -4.92115
      vertex 7.75 -15.1262 -4.82287
    endloop
  endfacet
  facet normal 1 0 0
    outer loop
      vertex 7.75 15.7467 -4.92115
      vertex 7.75 -15.7467 -4.92115
      vertex 7.75 16.3721 -4.98027
    endloop
  endfacet
  facet normal 1 0 0
    outer loop
      vertex 7.75 -16.3721 -4.98027
      vertex 7.75 16.3721 -4.98027
      vertex 7.75 -15.7467 -4.92115
    endloop
  endfacet
  facet normal 1 0 0
    outer loop
      vertex 7.75 16.3721 -4.98027
      vertex 7.75 -16.3721 -4.98027
      vertex 7.75 17 -5
    endloop
  endfacet
  facet normal 1 0 0
    outer loop
      vertex 7.75 17 -5
      vertex 7.75 -16.3721 -4.98027
      vertex 7.75 -17 -5
    endloop
  endfacet
  facet normal 1 0 0
    outer loop
      vertex 7.75 -17.6279 -4.98027
      vertex 7.75 -17.75 -5
      vertex 7.75 -17 -5
    endloop
  endfacet
  facet normal 1 0 0
    outer loop
      vertex 7.75 -17.75 -5
      vertex 7.75 -17.6279 -4.98027
      vertex 7.75 -17.75 -4.96873
    endloop
  endfacet
  facet normal 0 0 0
    outer loop
      vertex 7.75 -17 -5
      vertex 7.75 -17.75 -5
      vertex 7.75 17.75 -5
    endloop
  endfacet
  facet normal 0 0 0
    outer loop
      vertex 7.75 -17 -5
      vertex 7.75 17.75 -5
      vertex 7.75 17 -5
    endloop
  endfacet
  facet normal 0 0 -1
    outer loop
      vertex 7.75 -17.75 -5
      vertex 5.35 -5.35 -5
      vertex 7.75 17.75 -5
    endloop
  endfacet
  facet normal 0 0 -1
    outer loop
      vertex -7.75 -17 -5
      vertex 5.35 -5.35 -5
      vertex 7.75 -17.75 -5
    endloop
  endfacet
  facet normal -0 0 -1
    outer loop
      vertex 5.35 -5.35 -5
      vertex -7.75 -17 -5
      vertex -5.35 -5.35 -5
    endloop
  endfacet
  facet normal 0 0 -1
    outer loop
      vertex -7.75 -17 -5
      vertex 7.75 -17.75 -5
      vertex -7.75 -17.75 -5
    endloop
  endfacet
  facet normal 0 0 -1
    outer loop
      vertex 5.35 5.35 -5
      vertex 7.75 17.75 -5
      vertex 5.35 -5.35 -5
    endloop
  endfacet
  facet normal 0 0 -1
    outer loop
      vertex -7.75 17 -5
      vertex 5.35 5.35 -5
      vertex -5.35 5.35 -5
    endloop
  endfacet
  facet normal -0 0 -1
    outer loop
      vertex -5.35 -5.35 -5
      vertex -7.75 -17 -5
      vertex -5.35 5.35 -5
    endloop
  endfacet
  facet normal 0 0 -1
    outer loop
      vertex -7.75 17 -5
      vertex -5.35 5.35 -5
      vertex -7.75 -17 -5
    endloop
  endfacet
  facet normal 0 0 -1
    outer loop
      vertex 5.35 5.35 -5
      vertex -7.75 17 -5
      vertex 7.75 17.75 -5
    endloop
  endfacet
  facet normal -0 0 -1
    outer loop
      vertex 7.75 17.75 -5
      vertex -7.75 17 -5
      vertex -7.75 17.75 -5
    endloop
  endfacet
  facet normal 0 -1 0
    outer loop
      vertex -7.75 -17.75 -5
      vertex 7.75 -17.75 -4.96873
      vertex -7.75 -17.75 -4.96873
    endloop
  endfacet
  facet normal 0 -1 -0
    outer loop
      vertex 7.75 -17.75 -4.96873
      vertex -7.75 -17.75 -5
      vertex 7.75 -17.75 -5
    endloop
  endfacet
  facet normal 0 1 -0
    outer loop
      vertex 7.75 17.75 -5
      vertex -7.75 17.75 -4.96873
      vertex 7.75 17.75 -4.96873
    endloop
  endfacet
  facet normal 0 1 0
    outer loop
      vertex -7.75 17.75 -4.96873
      vertex 7.75 17.75 -5
      vertex -7.75 17.75 -5
    endloop
  endfacet
  facet normal 1 -0 0
    outer loop
      vertex -5.35 -5.35 5
      vertex -5.35 5.35 -5
      vertex -5.35 5.35 5
    endloop
  endfacet
  facet normal 1 0 0
    outer loop
      vertex -5.35 5.35 -5
      vertex -5.35 -5.35 5
      vertex -5.35 -5.35 -5
    endloop
  endfacet
  facet normal -1 0 0
    outer loop
      vertex 5.35 -5.35 -5
      vertex 5.35 5.35 5
      vertex 5.35 5.35 -5
    endloop
  endfacet
  facet normal -1 -0 0
    outer loop
      vertex 5.35 5.35 5
      vertex 5.35 -5.35 -5
      vertex 5.35 -5.35 5
    endloop
  endfacet
  facet normal 0 1 -0
    outer loop
      vertex 5.35 -5.35 -5
      vertex -5.35 -5.35 5
      vertex 5.35 -5.35 5
    endloop
  endfacet
  facet normal 0 1 0
    outer loop
      vertex -5.35 -5.35 5
      vertex 5.35 -5.35 -5
      vertex -5.35 -5.35 -5
    endloop
  endfacet
  facet normal 0 -1 0
    outer loop
      vertex -5.35 5.35 -5
      vertex 5.35 5.35 5
      vertex -5.35 5.35 5
    endloop
  endfacet
  facet normal 0 -1 -0
    outer loop
      vertex 5.35 5.35 5
      vertex -5.35 5.35 -5
      vertex 5.35 5.35 -5
    endloop
  endfacet
endsolid OpenSCAD_Model
